<svg xmlns="http://www.w3.org/2000/svg" xmlns:xlink="http://www.w3.org/1999/xlink" width="820" zoomAndPan="magnify" viewBox="0 0 615 634.499981" height="846" preserveAspectRatio="xMidYMid meet" version="1.0"><defs><clipPath id="7e19efdb82"><path d="M 321 340 L 610 340 L 610 592.4375 L 321 592.4375 Z M 321 340 " clip-rule="nonzero"/></clipPath><clipPath id="5bbaccf64c"><path d="M 3 362 L 415 362 L 415 592.4375 L 3 592.4375 Z M 3 362 " clip-rule="nonzero"/></clipPath><clipPath id="c1c0c09a53"><path d="M 3 303 L 563 303 L 563 592.4375 L 3 592.4375 Z M 3 303 " clip-rule="nonzero"/></clipPath></defs><path fill="#1976d2" d="M 558.828125 355.625 L 541.203125 298.324219 C 540.710938 296.710938 540.15625 295.121094 539.539062 293.550781 C 538.921875 291.980469 538.242188 290.4375 537.503906 288.925781 C 536.761719 287.410156 535.960938 285.925781 535.101562 284.472656 C 534.242188 283.023438 533.324219 281.609375 532.351562 280.230469 C 531.378906 278.855469 530.351562 277.515625 529.273438 276.222656 C 528.195312 274.925781 527.0625 273.675781 525.882812 272.46875 C 524.703125 271.265625 523.476562 270.109375 522.207031 269 C 520.933594 267.894531 519.617188 266.839844 518.261719 265.839844 C 516.90625 264.835938 515.511719 263.890625 514.078125 263 C 512.644531 262.109375 511.179688 261.277344 509.683594 260.503906 C 508.183594 259.730469 506.65625 259.019531 505.101562 258.367188 C 503.542969 257.71875 501.964844 257.128906 500.363281 256.605469 C 498.757812 256.082031 497.136719 255.621094 495.496094 255.226562 C 493.859375 254.832031 492.207031 254.503906 490.539062 254.242188 C 488.875 253.980469 487.199219 253.785156 485.519531 253.65625 C 483.835938 253.527344 482.152344 253.464844 480.464844 253.472656 L 132.414062 253.472656 C 130.730469 253.464844 129.042969 253.527344 127.363281 253.65625 C 125.679688 253.785156 124.007812 253.980469 122.339844 254.242188 C 120.675781 254.503906 119.023438 254.835938 117.382812 255.230469 C 115.742188 255.625 114.121094 256.085938 112.515625 256.609375 C 110.914062 257.132812 109.335938 257.722656 107.777344 258.371094 C 106.222656 259.023438 104.695312 259.734375 103.195312 260.507812 C 101.695312 261.28125 100.230469 262.113281 98.796875 263.003906 C 97.363281 263.894531 95.96875 264.839844 94.613281 265.84375 C 93.257812 266.84375 91.941406 267.898438 90.667969 269.007812 C 89.398438 270.113281 88.171875 271.269531 86.992188 272.476562 C 85.8125 273.683594 84.679688 274.933594 83.601562 276.226562 C 82.519531 277.523438 81.496094 278.859375 80.519531 280.238281 C 79.546875 281.617188 78.632812 283.03125 77.773438 284.484375 C 76.914062 285.933594 76.113281 287.417969 75.371094 288.933594 C 74.628906 290.449219 73.949219 291.992188 73.332031 293.558594 C 72.714844 295.128906 72.160156 296.722656 71.671875 298.335938 L 62.351562 328.65625 C 62.003906 329.785156 61.753906 330.9375 61.597656 332.113281 C 61.445312 333.285156 61.390625 334.464844 61.433594 335.644531 C 61.476562 336.828125 61.617188 338 61.855469 339.15625 C 62.09375 340.316406 62.429688 341.449219 62.859375 342.550781 C 63.285156 343.652344 63.804688 344.710938 64.410156 345.730469 C 65.015625 346.746094 65.703125 347.703125 66.46875 348.605469 C 67.234375 349.507812 68.070312 350.335938 68.976562 351.097656 C 69.882812 351.859375 70.847656 352.539062 71.867188 353.140625 L 382.472656 535.875 C 383.503906 536.480469 384.578125 536.996094 385.695312 537.421875 C 386.8125 537.84375 387.960938 538.171875 389.132812 538.402344 C 390.304688 538.632812 391.492188 538.765625 392.6875 538.792969 C 393.882812 538.824219 395.070312 538.753906 396.253906 538.582031 C 397.4375 538.410156 398.597656 538.140625 399.734375 537.769531 C 400.871094 537.402344 401.972656 536.941406 403.03125 536.386719 C 404.089844 535.832031 405.09375 535.191406 406.046875 534.464844 C 406.996094 533.742188 407.878906 532.941406 408.695312 532.066406 L 554.058594 376.300781 C 555.328125 374.941406 556.402344 373.4375 557.277344 371.792969 C 558.152344 370.148438 558.796875 368.417969 559.214844 366.601562 C 559.632812 364.785156 559.808594 362.949219 559.746094 361.085938 C 559.679688 359.226562 559.371094 357.402344 558.828125 355.625 Z M 558.828125 355.625 " fill-opacity="1" fill-rule="nonzero"/><path fill="#689f38" d="M 176.445312 365.523438 L 93.347656 316.625 C 92.664062 316.222656 91.953125 315.855469 91.226562 315.53125 C 90.5 315.207031 89.753906 314.925781 88.996094 314.683594 C 88.234375 314.445312 87.464844 314.25 86.679688 314.09375 C 85.898438 313.941406 85.109375 313.832031 84.316406 313.769531 C 83.523438 313.703125 82.726562 313.683594 81.929688 313.710938 C 81.132812 313.734375 80.339844 313.804688 79.550781 313.921875 C 78.761719 314.035156 77.984375 314.195312 77.210938 314.398438 C 76.441406 314.601562 75.683594 314.847656 74.941406 315.132812 C 74.199219 315.421875 73.472656 315.753906 72.769531 316.121094 C 72.0625 316.492188 71.378906 316.902344 70.71875 317.347656 C 70.058594 317.796875 69.425781 318.28125 68.824219 318.796875 C 68.21875 319.316406 67.644531 319.867188 67.101562 320.453125 C 66.558594 321.035156 66.046875 321.648438 65.574219 322.289062 C 65.101562 322.929688 64.664062 323.59375 64.265625 324.285156 C 63.867188 324.976562 63.507812 325.6875 63.191406 326.417969 C 62.871094 327.148438 62.59375 327.894531 62.359375 328.65625 L 20.378906 465.117188 C 20.054688 466.167969 19.816406 467.234375 19.660156 468.320312 C 19.5 469.402344 19.429688 470.496094 19.441406 471.589844 C 19.453125 472.6875 19.550781 473.777344 19.734375 474.859375 C 19.914062 475.941406 20.179688 477 20.523438 478.042969 C 20.871094 479.082031 21.296875 480.089844 21.796875 481.0625 C 22.300781 482.039062 22.875 482.96875 23.523438 483.851562 C 24.171875 484.738281 24.882812 485.566406 25.65625 486.34375 C 26.433594 487.117188 27.265625 487.828125 28.152344 488.472656 C 29.039062 489.117188 29.96875 489.691406 30.945312 490.191406 C 31.917969 490.691406 32.929688 491.117188 33.96875 491.460938 C 35.011719 491.804688 36.070312 492.066406 37.152344 492.246094 C 38.234375 492.425781 39.324219 492.519531 40.421875 492.53125 C 41.515625 492.539062 42.605469 492.464844 43.691406 492.308594 C 44.777344 492.148438 45.84375 491.90625 46.890625 491.582031 C 47.9375 491.257812 48.953125 490.851562 49.9375 490.371094 C 50.921875 489.886719 51.863281 489.332031 52.761719 488.703125 L 177.84375 401.136719 C 178.203125 400.886719 178.558594 400.621094 178.902344 400.347656 C 179.246094 400.070312 179.582031 399.785156 179.910156 399.488281 C 180.238281 399.191406 180.554688 398.886719 180.863281 398.570312 C 181.171875 398.253906 181.46875 397.929688 181.757812 397.59375 C 182.042969 397.261719 182.320312 396.917969 182.585938 396.566406 C 182.855469 396.214844 183.109375 395.855469 183.351562 395.484375 C 183.597656 395.117188 183.828125 394.742188 184.046875 394.359375 C 184.269531 393.976562 184.476562 393.589844 184.671875 393.195312 C 184.867188 392.800781 185.050781 392.398438 185.222656 391.992188 C 185.394531 391.585938 185.550781 391.171875 185.699219 390.757812 C 185.84375 390.339844 185.976562 389.917969 186.09375 389.492188 C 186.214844 389.070312 186.320312 388.640625 186.410156 388.210938 C 186.503906 387.777344 186.582031 387.34375 186.648438 386.90625 C 186.710938 386.472656 186.761719 386.03125 186.800781 385.59375 C 186.839844 385.152344 186.863281 384.714844 186.875 384.273438 C 186.882812 383.832031 186.878906 383.390625 186.863281 382.949219 C 186.84375 382.507812 186.816406 382.066406 186.769531 381.628906 C 186.726562 381.191406 186.667969 380.753906 186.59375 380.316406 C 186.523438 379.882812 186.4375 379.449219 186.335938 379.019531 C 186.238281 378.589844 186.125 378.164062 186 377.742188 C 185.875 377.316406 185.734375 376.898438 185.585938 376.484375 C 185.433594 376.070312 185.265625 375.660156 185.089844 375.257812 C 184.914062 374.855469 184.722656 374.457031 184.519531 374.0625 C 184.316406 373.671875 184.105469 373.285156 183.878906 372.90625 C 183.652344 372.527344 183.414062 372.15625 183.164062 371.792969 C 182.914062 371.429688 182.652344 371.074219 182.382812 370.726562 C 182.109375 370.378906 181.828125 370.039062 181.535156 369.710938 C 181.242188 369.378906 180.9375 369.058594 180.625 368.75 C 180.3125 368.4375 179.992188 368.136719 179.660156 367.84375 C 179.328125 367.554688 178.988281 367.273438 178.636719 367.003906 C 178.289062 366.734375 177.929688 366.476562 177.566406 366.230469 C 177.199219 365.980469 176.828125 365.746094 176.445312 365.523438 Z M 176.445312 365.523438 " fill-opacity="1" fill-rule="nonzero"/><g clip-path="url(#7e19efdb82)"><path fill="#689f38" d="M 606.375 510.1875 L 558.816406 355.625 C 558.679688 355.179688 558.53125 354.746094 558.367188 354.3125 C 558.203125 353.882812 558.023438 353.457031 557.832031 353.035156 C 557.640625 352.617188 557.433594 352.203125 557.214844 351.796875 C 556.996094 351.390625 556.765625 350.988281 556.519531 350.597656 C 556.273438 350.207031 556.015625 349.824219 555.746094 349.449219 C 555.476562 349.074219 555.195312 348.710938 554.898438 348.355469 C 554.605469 347.996094 554.300781 347.652344 553.984375 347.316406 C 553.667969 346.980469 553.339844 346.652344 553 346.339844 C 552.664062 346.023438 552.316406 345.722656 551.957031 345.429688 C 551.597656 345.136719 551.234375 344.855469 550.855469 344.589844 C 550.480469 344.320312 550.09375 344.066406 549.703125 343.824219 C 549.308594 343.582031 548.910156 343.351562 548.5 343.132812 C 548.09375 342.917969 547.679688 342.714844 547.257812 342.527344 C 546.835938 342.335938 546.410156 342.160156 545.976562 342 C 545.542969 341.839844 545.105469 341.691406 544.664062 341.558594 C 544.222656 341.425781 543.777344 341.308594 543.324219 341.203125 C 542.875 341.101562 542.421875 341.011719 541.964844 340.9375 C 541.511719 340.863281 541.054688 340.804688 540.59375 340.761719 C 540.132812 340.714844 539.671875 340.6875 539.210938 340.671875 C 538.75 340.660156 538.289062 340.660156 537.828125 340.675781 C 537.363281 340.695312 536.90625 340.726562 536.445312 340.773438 C 535.984375 340.816406 535.527344 340.878906 535.074219 340.957031 C 534.617188 341.03125 534.164062 341.125 533.714844 341.230469 C 533.265625 341.335938 532.820312 341.457031 532.378906 341.59375 C 531.9375 341.726562 531.5 341.875 531.070312 342.039062 C 530.636719 342.203125 530.210938 342.382812 529.789062 342.574219 C 529.371094 342.765625 528.957031 342.96875 528.550781 343.1875 C 528.144531 343.40625 527.746094 343.640625 527.351562 343.882812 C 526.960938 344.128906 526.578125 344.386719 526.203125 344.65625 C 525.828125 344.925781 525.460938 345.207031 525.105469 345.503906 C 524.75 345.796875 524.402344 346.101562 524.066406 346.417969 C 523.730469 346.734375 523.40625 347.0625 523.089844 347.398438 L 327.675781 556.800781 C 326.976562 557.550781 326.332031 558.347656 325.75 559.191406 C 325.164062 560.035156 324.644531 560.917969 324.1875 561.835938 C 323.734375 562.753906 323.347656 563.703125 323.027344 564.679688 C 322.710938 565.652344 322.464844 566.648438 322.289062 567.660156 C 322.113281 568.671875 322.015625 569.6875 321.988281 570.714844 C 321.964844 571.742188 322.011719 572.761719 322.132812 573.78125 C 322.257812 574.800781 322.453125 575.804688 322.722656 576.796875 C 322.988281 577.789062 323.328125 578.753906 323.738281 579.695312 C 324.144531 580.636719 324.621094 581.542969 325.160156 582.414062 C 325.703125 583.285156 326.304688 584.117188 326.964844 584.898438 C 327.625 585.683594 328.339844 586.417969 329.109375 587.097656 C 329.875 587.78125 330.6875 588.402344 331.546875 588.964844 C 332.40625 589.527344 333.296875 590.027344 334.230469 590.457031 C 335.160156 590.890625 336.117188 591.253906 337.097656 591.550781 C 338.082031 591.84375 339.082031 592.0625 340.097656 592.214844 C 341.113281 592.363281 342.132812 592.4375 343.160156 592.4375 L 545.640625 592.4375 C 546.875 592.4375 548.113281 592.398438 549.347656 592.328125 C 550.585938 592.253906 551.816406 592.148438 553.046875 592.003906 C 554.277344 591.859375 555.5 591.679688 556.71875 591.464844 C 557.9375 591.246094 559.148438 590.996094 560.351562 590.710938 C 561.558594 590.421875 562.753906 590.101562 563.9375 589.746094 C 565.121094 589.386719 566.296875 588.996094 567.460938 588.574219 C 568.621094 588.148438 569.769531 587.6875 570.90625 587.195312 C 572.042969 586.703125 573.164062 586.179688 574.269531 585.621094 C 575.375 585.0625 576.460938 584.472656 577.53125 583.851562 C 578.601562 583.230469 579.652344 582.578125 580.6875 581.898438 C 581.71875 581.214844 582.730469 580.503906 583.722656 579.761719 C 584.710938 579.019531 585.679688 578.25 586.625 577.449219 C 587.574219 576.652344 588.496094 575.828125 589.390625 574.972656 C 590.289062 574.121094 591.160156 573.242188 592.007812 572.339844 C 592.855469 571.4375 593.671875 570.511719 594.464844 569.558594 C 595.257812 568.609375 596.023438 567.632812 596.757812 566.636719 C 597.492188 565.644531 598.199219 564.625 598.875 563.589844 C 599.550781 562.550781 600.195312 561.496094 600.808594 560.421875 C 601.421875 559.347656 602.007812 558.253906 602.554688 557.148438 C 603.105469 556.039062 603.625 554.914062 604.109375 553.773438 C 604.59375 552.636719 605.046875 551.484375 605.460938 550.320312 C 605.878906 549.152344 606.261719 547.976562 606.613281 546.789062 C 606.960938 545.601562 607.273438 544.402344 607.554688 543.199219 C 607.832031 541.992188 608.074219 540.777344 608.285156 539.558594 C 608.492188 538.335938 608.664062 537.113281 608.800781 535.882812 C 608.9375 534.652344 609.035156 533.417969 609.101562 532.183594 C 609.164062 530.945312 609.191406 529.707031 609.183594 528.472656 C 609.175781 527.234375 609.132812 525.996094 609.050781 524.761719 C 608.972656 523.527344 608.855469 522.292969 608.703125 521.066406 C 608.550781 519.835938 608.363281 518.613281 608.140625 517.398438 C 607.914062 516.179688 607.65625 514.96875 607.363281 513.765625 C 607.066406 512.5625 606.738281 511.371094 606.375 510.1875 Z M 606.375 510.1875 " fill-opacity="1" fill-rule="nonzero"/></g><g clip-path="url(#5bbaccf64c)"><path fill="#1976d2" d="M 403.945312 499.359375 L 176.4375 365.523438 C 175.566406 365.011719 174.664062 364.5625 173.730469 364.179688 C 172.796875 363.796875 171.839844 363.480469 170.859375 363.234375 C 169.878906 362.988281 168.890625 362.8125 167.882812 362.710938 C 166.878906 362.605469 165.875 362.574219 164.863281 362.613281 C 163.855469 362.652344 162.855469 362.765625 161.863281 362.945312 C 160.867188 363.128906 159.894531 363.382812 158.9375 363.703125 C 157.980469 364.027344 157.050781 364.414062 156.148438 364.871094 C 155.25 365.328125 154.382812 365.84375 153.558594 366.421875 L 28.476562 453.988281 C 26.542969 455.339844 24.886719 456.96875 23.496094 458.875 C 22.109375 460.78125 21.070312 462.863281 20.378906 465.117188 L 6.507812 510.179688 C 6.144531 511.363281 5.8125 512.554688 5.519531 513.757812 C 5.222656 514.960938 4.964844 516.167969 4.742188 517.386719 C 4.519531 518.605469 4.328125 519.828125 4.175781 521.058594 C 4.023438 522.285156 3.910156 523.515625 3.828125 524.753906 C 3.746094 525.988281 3.703125 527.226562 3.695312 528.464844 C 3.6875 529.699219 3.714844 530.9375 3.777344 532.175781 C 3.84375 533.410156 3.945312 534.644531 4.078125 535.875 C 4.214844 537.105469 4.386719 538.332031 4.597656 539.550781 C 4.804688 540.769531 5.046875 541.984375 5.324219 543.191406 C 5.605469 544.398438 5.917969 545.59375 6.265625 546.78125 C 6.617188 547.96875 7 549.148438 7.414062 550.3125 C 7.832031 551.476562 8.285156 552.628906 8.769531 553.769531 C 9.253906 554.910156 9.773438 556.03125 10.320312 557.140625 C 10.871094 558.25 11.453125 559.34375 12.070312 560.417969 C 12.683594 561.492188 13.328125 562.546875 14.003906 563.585938 C 14.679688 564.621094 15.386719 565.640625 16.121094 566.632812 C 16.855469 567.628906 17.621094 568.605469 18.414062 569.554688 C 19.203125 570.507812 20.023438 571.433594 20.871094 572.335938 C 21.71875 573.242188 22.589844 574.117188 23.488281 574.972656 C 24.382812 575.824219 25.304688 576.648438 26.253906 577.449219 C 27.199219 578.246094 28.167969 579.015625 29.15625 579.757812 C 30.148438 580.5 31.160156 581.210938 32.191406 581.894531 C 33.226562 582.578125 34.277344 583.230469 35.347656 583.851562 C 36.417969 584.472656 37.507812 585.0625 38.613281 585.621094 C 39.714844 586.179688 40.835938 586.703125 41.972656 587.195312 C 43.109375 587.6875 44.257812 588.144531 45.421875 588.570312 C 46.582031 588.996094 47.757812 589.386719 48.941406 589.742188 C 50.128906 590.101562 51.324219 590.421875 52.527344 590.707031 C 53.730469 590.996094 54.941406 591.246094 56.160156 591.460938 C 57.378906 591.679688 58.605469 591.859375 59.835938 592.003906 C 61.0625 592.148438 62.296875 592.253906 63.53125 592.328125 C 64.769531 592.398438 66.003906 592.4375 67.242188 592.4375 L 343.160156 592.4375 C 344.613281 592.4375 346.050781 592.289062 347.472656 591.992188 C 348.894531 591.695312 350.269531 591.257812 351.601562 590.679688 C 352.933594 590.101562 354.191406 589.390625 355.378906 588.554688 C 356.566406 587.714844 357.652344 586.765625 358.644531 585.703125 L 408.695312 532.066406 C 409.234375 531.488281 409.742188 530.882812 410.210938 530.246094 C 410.683594 529.613281 411.121094 528.953125 411.519531 528.269531 C 411.917969 527.585938 412.273438 526.882812 412.59375 526.160156 C 412.914062 525.4375 413.191406 524.699219 413.429688 523.945312 C 413.664062 523.1875 413.859375 522.421875 414.007812 521.648438 C 414.160156 520.871094 414.265625 520.089844 414.328125 519.300781 C 414.390625 518.511719 414.410156 517.722656 414.386719 516.929688 C 414.359375 516.140625 414.289062 515.355469 414.175781 514.570312 C 414.0625 513.789062 413.90625 513.015625 413.707031 512.25 C 413.503906 511.484375 413.261719 510.734375 412.980469 509.996094 C 412.695312 509.257812 412.371094 508.539062 412.003906 507.835938 C 411.640625 507.136719 411.234375 506.457031 410.792969 505.800781 C 410.351562 505.144531 409.875 504.515625 409.363281 503.910156 C 408.851562 503.308594 408.308594 502.734375 407.734375 502.195312 C 407.15625 501.652344 406.550781 501.144531 405.917969 500.667969 C 405.285156 500.195312 404.628906 499.757812 403.949219 499.359375 Z M 403.945312 499.359375 " fill-opacity="1" fill-rule="nonzero"/></g><g clip-path="url(#c1c0c09a53)"><path fill="#ffb300" d="M 562.332031 367.238281 L 352.195312 592.4375 L 294.367188 592.4375 L 359.609375 522.523438 L 166.632812 408.972656 L 3.734375 522.949219 C 4.148438 518.601562 5.0625 514.363281 6.488281 510.238281 L 22.589844 458.121094 L 126.597656 385.246094 L 57.539062 344.570312 L 70.25 303.046875 L 389.265625 490.746094 L 545.171875 323.808594 C 546.011719 322.785156 547 321.9375 548.136719 321.265625 Z M 562.332031 367.238281 " fill-opacity="1" fill-rule="nonzero"/></g><path fill="#f44336" d="M 409.84375 85.894531 C 406.3125 82.425781 402.617188 79.144531 398.757812 76.050781 C 394.894531 72.957031 390.886719 70.066406 386.734375 67.378906 C 382.582031 64.691406 378.300781 62.21875 373.898438 59.964844 C 369.492188 57.710938 364.984375 55.683594 360.375 53.886719 C 355.765625 52.085938 351.078125 50.527344 346.3125 49.203125 C 341.542969 47.878906 336.722656 46.800781 331.84375 45.96875 C 326.96875 45.132812 322.0625 44.546875 317.125 44.210938 C 312.1875 43.871094 307.25 43.785156 302.304688 43.949219 C 299.945312 44.035156 297.59375 44.175781 295.242188 44.371094 C 292.894531 44.570312 290.550781 44.824219 288.210938 45.132812 C 285.875 45.4375 283.542969 45.800781 281.222656 46.222656 C 278.902344 46.640625 276.59375 47.113281 274.292969 47.640625 C 271.996094 48.167969 269.710938 48.75 267.4375 49.386719 C 265.167969 50.019531 262.914062 50.710938 260.675781 51.453125 C 258.4375 52.195312 256.21875 52.988281 254.015625 53.835938 C 251.816406 54.683594 249.636719 55.582031 247.476562 56.53125 C 245.320312 57.484375 243.183594 58.484375 241.074219 59.535156 C 238.960938 60.585938 236.878906 61.6875 234.816406 62.835938 C 232.757812 63.988281 230.726562 65.183594 228.726562 66.429688 C 226.722656 67.675781 224.75 68.96875 222.808594 70.308594 C 220.871094 71.648438 218.960938 73.03125 217.085938 74.460938 C 215.210938 75.890625 213.367188 77.363281 211.5625 78.878906 C 209.753906 80.398438 207.988281 81.957031 206.253906 83.554688 C 204.519531 85.15625 202.828125 86.796875 201.171875 88.476562 C 199.519531 90.15625 197.902344 91.875 196.328125 93.632812 C 194.757812 95.386719 193.226562 97.179688 191.734375 99.011719 C 190.246094 100.839844 188.800781 102.703125 187.402344 104.601562 C 186 106.496094 184.644531 108.425781 183.335938 110.386719 C 182.027344 112.351562 180.765625 114.339844 179.546875 116.363281 C 178.332031 118.382812 177.164062 120.433594 176.046875 122.507812 C 174.929688 124.585938 173.859375 126.6875 172.839844 128.8125 C 171.820312 130.941406 170.851562 133.089844 169.9375 135.261719 C 169.019531 137.4375 168.152344 139.628906 167.339844 141.84375 C 166.523438 144.054688 165.761719 146.289062 165.054688 148.539062 C 164.347656 150.789062 163.691406 153.050781 163.089844 155.332031 C 162.488281 157.613281 161.941406 159.90625 161.449219 162.214844 C 160.957031 164.519531 160.519531 166.835938 160.136719 169.164062 C 159.753906 171.492188 159.425781 173.828125 159.152344 176.167969 C 158.878906 178.511719 158.660156 180.859375 158.5 183.210938 C 158.335938 185.566406 158.230469 187.921875 158.179688 190.277344 C 158.046875 198.320312 158.574219 206.316406 159.761719 214.265625 C 160.949219 222.21875 162.78125 230.019531 165.261719 237.671875 C 167.742188 245.320312 170.832031 252.710938 174.535156 259.847656 C 178.238281 266.988281 182.503906 273.769531 187.328125 280.203125 C 190 284.207031 256.773438 377.066406 278.113281 406.640625 C 278.5 407.179688 278.90625 407.707031 279.324219 408.222656 C 279.746094 408.738281 280.179688 409.238281 280.628906 409.726562 C 281.078125 410.21875 281.539062 410.691406 282.019531 411.15625 C 282.496094 411.617188 282.984375 412.066406 283.488281 412.5 C 283.992188 412.929688 284.507812 413.347656 285.039062 413.753906 C 285.566406 414.15625 286.105469 414.542969 286.65625 414.914062 C 287.207031 415.285156 287.769531 415.640625 288.339844 415.976562 C 288.914062 416.316406 289.492188 416.636719 290.085938 416.941406 C 290.675781 417.242188 291.273438 417.53125 291.882812 417.796875 C 292.488281 418.066406 293.105469 418.316406 293.726562 418.550781 C 294.347656 418.78125 294.976562 418.996094 295.613281 419.191406 C 296.246094 419.386719 296.886719 419.5625 297.53125 419.722656 C 298.179688 419.878906 298.828125 420.015625 299.480469 420.136719 C 300.132812 420.257812 300.792969 420.355469 301.449219 420.4375 C 302.109375 420.519531 302.769531 420.578125 303.433594 420.621094 C 304.097656 420.664062 304.761719 420.6875 305.425781 420.6875 C 306.089844 420.691406 306.753906 420.675781 307.417969 420.640625 C 308.078125 420.601562 308.742188 420.546875 309.402344 420.472656 C 310.0625 420.398438 310.71875 420.300781 311.371094 420.1875 C 312.027344 420.074219 312.679688 419.941406 313.324219 419.789062 C 313.972656 419.636719 314.613281 419.464844 315.25 419.277344 C 315.886719 419.085938 316.515625 418.878906 317.140625 418.652344 C 317.765625 418.425781 318.382812 418.179688 318.992188 417.917969 C 319.601562 417.652344 320.203125 417.371094 320.796875 417.074219 C 321.390625 416.773438 321.972656 416.457031 322.550781 416.125 C 323.125 415.792969 323.6875 415.441406 324.242188 415.078125 C 324.796875 414.710938 325.339844 414.328125 325.871094 413.929688 C 326.402344 413.53125 326.921875 413.117188 327.429688 412.6875 C 327.9375 412.261719 328.433594 411.816406 328.914062 411.359375 C 329.394531 410.902344 329.863281 410.429688 330.316406 409.945312 C 330.769531 409.457031 331.207031 408.960938 331.632812 408.449219 C 332.054688 407.9375 332.464844 407.414062 332.859375 406.878906 C 333.671875 405.804688 421.773438 285.324219 425.203125 280.957031 C 429.9375 274.578125 434.136719 267.859375 437.800781 260.8125 C 441.46875 253.765625 444.554688 246.46875 447.058594 238.929688 C 449.566406 231.390625 451.464844 223.703125 452.75 215.859375 C 454.03125 208.019531 454.691406 200.128906 454.722656 192.183594 C 454.738281 187.238281 454.507812 182.304688 454.023438 177.386719 C 453.542969 172.464844 452.816406 167.582031 451.84375 162.734375 C 450.871094 157.886719 449.65625 153.097656 448.203125 148.375 C 446.746094 143.648438 445.058594 139.007812 443.132812 134.453125 C 441.210938 129.902344 439.0625 125.453125 436.691406 121.117188 C 434.320312 116.777344 431.738281 112.570312 428.941406 108.492188 C 426.144531 104.414062 423.152344 100.488281 419.960938 96.710938 C 416.769531 92.9375 413.398438 89.328125 409.84375 85.894531 Z M 409.84375 85.894531 " fill-opacity="1" fill-rule="nonzero"/><path fill="#eeeeee" d="M 369.988281 194.152344 C 369.988281 195.195312 369.964844 196.234375 369.914062 197.273438 C 369.863281 198.3125 369.785156 199.347656 369.683594 200.382812 C 369.582031 201.417969 369.453125 202.449219 369.300781 203.480469 C 369.148438 204.507812 368.972656 205.53125 368.769531 206.554688 C 368.566406 207.574219 368.339844 208.585938 368.085938 209.597656 C 367.832031 210.605469 367.554688 211.609375 367.253906 212.601562 C 366.953125 213.597656 366.625 214.585938 366.273438 215.566406 C 365.925781 216.542969 365.550781 217.515625 365.152344 218.476562 C 364.753906 219.4375 364.332031 220.386719 363.886719 221.328125 C 363.445312 222.269531 362.976562 223.195312 362.484375 224.113281 C 361.996094 225.03125 361.484375 225.9375 360.949219 226.828125 C 360.414062 227.71875 359.859375 228.597656 359.28125 229.464844 C 358.703125 230.328125 358.101562 231.179688 357.484375 232.015625 C 356.863281 232.847656 356.222656 233.667969 355.566406 234.472656 C 354.90625 235.277344 354.226562 236.066406 353.527344 236.835938 C 352.828125 237.605469 352.113281 238.359375 351.375 239.09375 C 350.640625 239.828125 349.886719 240.546875 349.117188 241.246094 C 348.347656 241.945312 347.558594 242.625 346.753906 243.28125 C 345.953125 243.941406 345.132812 244.582031 344.296875 245.203125 C 343.460938 245.820312 342.613281 246.421875 341.746094 247 C 340.882812 247.578125 340.003906 248.132812 339.113281 248.667969 C 338.21875 249.203125 337.316406 249.714844 336.398438 250.203125 C 335.480469 250.695312 334.550781 251.164062 333.613281 251.609375 C 332.671875 252.050781 331.722656 252.472656 330.761719 252.871094 C 329.800781 253.269531 328.828125 253.644531 327.851562 253.996094 C 326.871094 254.34375 325.882812 254.671875 324.886719 254.972656 C 323.894531 255.273438 322.890625 255.550781 321.882812 255.804688 C 320.875 256.058594 319.859375 256.285156 318.839844 256.488281 C 317.820312 256.691406 316.792969 256.867188 315.765625 257.023438 C 314.738281 257.175781 313.703125 257.300781 312.667969 257.402344 C 311.632812 257.503906 310.597656 257.582031 309.558594 257.632812 C 308.519531 257.683594 307.480469 257.710938 306.441406 257.710938 C 305.402344 257.710938 304.363281 257.683594 303.324219 257.632812 C 302.285156 257.582031 301.246094 257.503906 300.210938 257.402344 C 299.175781 257.300781 298.144531 257.175781 297.117188 257.023438 C 296.085938 256.867188 295.0625 256.691406 294.042969 256.488281 C 293.023438 256.285156 292.007812 256.058594 291 255.804688 C 289.992188 255.550781 288.988281 255.273438 287.992188 254.972656 C 287 254.671875 286.011719 254.34375 285.03125 253.996094 C 284.050781 253.644531 283.082031 253.269531 282.121094 252.871094 C 281.160156 252.472656 280.210938 252.050781 279.269531 251.609375 C 278.328125 251.164062 277.402344 250.695312 276.484375 250.203125 C 275.566406 249.714844 274.664062 249.203125 273.769531 248.667969 C 272.878906 248.132812 272 247.578125 271.136719 247 C 270.269531 246.421875 269.421875 245.820312 268.585938 245.203125 C 267.75 244.582031 266.929688 243.941406 266.125 243.28125 C 265.320312 242.625 264.535156 241.945312 263.765625 241.246094 C 262.992188 240.546875 262.242188 239.828125 261.503906 239.09375 C 260.769531 238.359375 260.050781 237.605469 259.355469 236.835938 C 258.65625 236.066406 257.976562 235.277344 257.316406 234.472656 C 256.65625 233.667969 256.015625 232.847656 255.398438 232.015625 C 254.777344 231.179688 254.179688 230.328125 253.601562 229.464844 C 253.023438 228.597656 252.46875 227.71875 251.933594 226.828125 C 251.398438 225.9375 250.886719 225.03125 250.394531 224.113281 C 249.90625 223.195312 249.4375 222.269531 248.992188 221.328125 C 248.546875 220.386719 248.128906 219.4375 247.730469 218.476562 C 247.332031 217.515625 246.957031 216.542969 246.605469 215.566406 C 246.257812 214.585938 245.929688 213.597656 245.628906 212.601562 C 245.328125 211.609375 245.050781 210.605469 244.796875 209.597656 C 244.542969 208.585938 244.316406 207.574219 244.113281 206.554688 C 243.910156 205.53125 243.730469 204.507812 243.578125 203.480469 C 243.425781 202.449219 243.300781 201.417969 243.199219 200.382812 C 243.097656 199.347656 243.019531 198.3125 242.96875 197.273438 C 242.917969 196.234375 242.890625 195.195312 242.890625 194.152344 C 242.890625 193.113281 242.917969 192.074219 242.96875 191.035156 C 243.019531 189.996094 243.097656 188.960938 243.199219 187.925781 C 243.300781 186.890625 243.425781 185.855469 243.578125 184.828125 C 243.730469 183.800781 243.910156 182.773438 244.113281 181.753906 C 244.316406 180.734375 244.542969 179.71875 244.796875 178.710938 C 245.050781 177.703125 245.328125 176.699219 245.628906 175.703125 C 245.929688 174.710938 246.257812 173.722656 246.605469 172.742188 C 246.957031 171.761719 247.332031 170.792969 247.730469 169.832031 C 248.128906 168.871094 248.546875 167.921875 248.992188 166.980469 C 249.4375 166.039062 249.90625 165.109375 250.394531 164.195312 C 250.886719 163.277344 251.398438 162.371094 251.933594 161.480469 C 252.46875 160.585938 253.023438 159.710938 253.601562 158.84375 C 254.179688 157.980469 254.777344 157.128906 255.398438 156.292969 C 256.015625 155.457031 256.65625 154.636719 257.316406 153.835938 C 257.976562 153.03125 258.65625 152.242188 259.355469 151.472656 C 260.050781 150.703125 260.769531 149.949219 261.503906 149.214844 C 262.242188 148.476562 262.992188 147.761719 263.765625 147.0625 C 264.535156 146.363281 265.320312 145.683594 266.125 145.023438 C 266.929688 144.363281 267.75 143.726562 268.585938 143.105469 C 269.421875 142.484375 270.269531 141.886719 271.136719 141.308594 C 272 140.730469 272.878906 140.175781 273.769531 139.640625 C 274.664062 139.105469 275.566406 138.59375 276.484375 138.101562 C 277.402344 137.613281 278.328125 137.144531 279.269531 136.699219 C 280.210938 136.253906 281.160156 135.835938 282.121094 135.4375 C 283.082031 135.039062 284.050781 134.664062 285.03125 134.3125 C 286.011719 133.964844 287 133.636719 287.992188 133.335938 C 288.988281 133.03125 289.992188 132.753906 291 132.503906 C 292.007812 132.25 293.023438 132.023438 294.042969 131.820312 C 295.0625 131.617188 296.085938 131.4375 297.117188 131.285156 C 298.144531 131.132812 299.175781 131.007812 300.210938 130.90625 C 301.246094 130.800781 302.285156 130.726562 303.324219 130.675781 C 304.363281 130.625 305.402344 130.597656 306.441406 130.597656 C 307.480469 130.597656 308.519531 130.625 309.558594 130.675781 C 310.597656 130.726562 311.632812 130.800781 312.667969 130.90625 C 313.703125 131.007812 314.738281 131.132812 315.765625 131.285156 C 316.792969 131.4375 317.820312 131.617188 318.839844 131.820312 C 319.859375 132.023438 320.875 132.25 321.882812 132.503906 C 322.890625 132.753906 323.894531 133.03125 324.886719 133.335938 C 325.882812 133.636719 326.871094 133.964844 327.851562 134.3125 C 328.828125 134.664062 329.800781 135.039062 330.761719 135.4375 C 331.722656 135.835938 332.671875 136.253906 333.613281 136.699219 C 334.550781 137.144531 335.480469 137.613281 336.398438 138.101562 C 337.316406 138.59375 338.21875 139.105469 339.113281 139.640625 C 340.003906 140.175781 340.882812 140.730469 341.746094 141.308594 C 342.613281 141.886719 343.460938 142.484375 344.296875 143.105469 C 345.132812 143.726562 345.953125 144.363281 346.753906 145.023438 C 347.558594 145.683594 348.347656 146.363281 349.117188 147.0625 C 349.886719 147.761719 350.640625 148.476562 351.375 149.214844 C 352.113281 149.949219 352.828125 150.703125 353.527344 151.472656 C 354.226562 152.242188 354.90625 153.03125 355.566406 153.835938 C 356.222656 154.636719 356.863281 155.457031 357.484375 156.292969 C 358.101562 157.128906 358.703125 157.980469 359.28125 158.84375 C 359.859375 159.710938 360.414062 160.585938 360.949219 161.480469 C 361.484375 162.371094 361.996094 163.277344 362.484375 164.195312 C 362.976562 165.109375 363.445312 166.039062 363.886719 166.980469 C 364.332031 167.921875 364.753906 168.871094 365.152344 169.832031 C 365.550781 170.792969 365.925781 171.761719 366.273438 172.742188 C 366.625 173.722656 366.953125 174.710938 367.253906 175.703125 C 367.554688 176.699219 367.832031 177.703125 368.085938 178.710938 C 368.339844 179.71875 368.566406 180.734375 368.769531 181.753906 C 368.972656 182.773438 369.148438 183.800781 369.300781 184.828125 C 369.453125 185.855469 369.582031 186.890625 369.683594 187.925781 C 369.785156 188.960938 369.863281 189.996094 369.914062 191.035156 C 369.964844 192.074219 369.988281 193.113281 369.988281 194.152344 Z M 369.988281 194.152344 " fill-opacity="1" fill-rule="nonzero"/></svg>