<svg xmlns="http://www.w3.org/2000/svg" xmlns:xlink="http://www.w3.org/1999/xlink" width="820" zoomAndPan="magnify" viewBox="0 0 615 634.499981" height="846" preserveAspectRatio="xMidYMid meet" version="1.0"><defs><clipPath id="1e7eb19840"><path d="M 49.542969 512 L 565 512 L 565 634 L 49.542969 634 Z M 49.542969 512 " clip-rule="nonzero"/></clipPath></defs><g clip-path="url(#1e7eb19840)"><path fill="#c2000b" d="M 519.351562 539.722656 C 485.863281 526.746094 439.421875 517.109375 387.425781 512.226562 C 353.527344 564.773438 326.964844 602 326.601562 602.519531 C 322.160156 608.707031 315.019531 612.394531 307.402344 612.394531 C 299.785156 612.394531 292.640625 608.707031 288.203125 602.519531 C 287.839844 602 261.277344 564.773438 227.378906 512.226562 C 175.160156 517.125 128.546875 526.839844 95.058594 539.878906 C 58.125 554.257812 49.8125 567.707031 49.8125 571.277344 C 49.8125 577.261719 65.867188 594.519531 115.5 609.75 C 166.425781 625.386719 234.570312 634 307.402344 634 C 380.234375 634 448.375 625.386719 499.300781 609.75 C 548.933594 594.523438 564.988281 577.265625 564.988281 571.28125 C 564.988281 567.691406 556.601562 554.148438 519.351562 539.722656 Z M 519.351562 539.722656 " fill-opacity="1" fill-rule="nonzero"/></g><path fill="#c2000b" d="M 354.613281 476.042969 C 355.070312 475.226562 355.570312 474.453125 356.105469 473.695312 C 418.789062 374.964844 491.289062 245.746094 491.289062 184.003906 C 491.289062 82.542969 408.792969 0 307.402344 0 C 206.007812 0 123.511719 82.542969 123.511719 184.003906 C 123.511719 263.113281 242.515625 452.972656 307.402344 547.566406 C 321.234375 527.394531 337.539062 502.890625 354.613281 476.042969 Z M 307.402344 100.890625 C 345.5625 100.890625 376.613281 131.960938 376.613281 170.144531 C 376.613281 208.332031 345.5625 239.398438 307.402344 239.398438 C 269.238281 239.398438 238.1875 208.332031 238.1875 170.144531 C 238.1875 131.960938 269.238281 100.890625 307.402344 100.890625 Z M 307.402344 100.890625 " fill-opacity="1" fill-rule="nonzero"/></svg>