<svg xmlns="http://www.w3.org/2000/svg" xmlns:xlink="http://www.w3.org/1999/xlink" width="820" zoomAndPan="magnify" viewBox="0 0 615 634.499981" height="846" preserveAspectRatio="xMidYMid meet" version="1.0"><path fill="#ff2e2e" d="M 371.40625 409.011719 C 419.046875 327.527344 476.074219 218.65625 476.074219 164.871094 C 476.015625 162.152344 475.894531 159.4375 475.703125 156.726562 C 475.515625 154.015625 475.257812 151.308594 474.9375 148.609375 C 474.617188 145.910156 474.230469 143.21875 473.78125 140.539062 C 473.332031 137.859375 472.816406 135.191406 472.234375 132.535156 C 471.652344 129.878906 471.011719 127.238281 470.300781 124.613281 C 469.59375 121.988281 468.820312 119.382812 467.988281 116.796875 C 467.152344 114.210938 466.257812 111.644531 465.296875 109.101562 C 464.339844 106.554688 463.320312 104.039062 462.238281 101.542969 C 461.15625 99.046875 460.015625 96.582031 458.816406 94.140625 C 457.617188 91.703125 456.355469 89.292969 455.039062 86.914062 C 453.722656 84.539062 452.347656 82.191406 450.917969 79.878906 C 449.488281 77.570312 448 75.292969 446.460938 73.054688 C 444.917969 70.8125 443.324219 68.613281 441.675781 66.449219 C 440.027344 64.285156 438.328125 62.164062 436.578125 60.085938 C 434.828125 58.003906 433.027344 55.96875 431.179688 53.972656 C 429.328125 51.980469 427.433594 50.03125 425.488281 48.132812 C 423.542969 46.230469 421.554688 44.375 419.523438 42.570312 C 417.488281 40.765625 415.414062 39.011719 413.292969 37.304688 C 411.175781 35.601562 409.015625 33.949219 406.816406 32.347656 C 404.621094 30.746094 402.382812 29.199219 400.109375 27.707031 C 397.835938 26.21875 395.527344 24.78125 393.183594 23.398438 C 390.839844 22.019531 388.464844 20.695312 386.058594 19.429688 C 383.652344 18.164062 381.214844 16.960938 378.75 15.8125 C 376.28125 14.664062 373.789062 13.578125 371.273438 12.550781 C 368.753906 11.523438 366.210938 10.558594 363.644531 9.65625 C 361.082031 8.75 358.496094 7.910156 355.890625 7.128906 C 353.28125 6.351562 350.660156 5.636719 348.019531 4.984375 C 345.378906 4.332031 342.722656 3.746094 340.054688 3.222656 C 337.382812 2.699219 334.703125 2.242188 332.011719 1.847656 C 329.320312 1.453125 326.621094 1.125 323.914062 0.863281 C 321.207031 0.601562 318.496094 0.402344 315.777344 0.269531 C 313.0625 0.140625 310.34375 0.0742188 307.621094 0.0742188 C 304.902344 0.0742188 302.183594 0.140625 299.46875 0.269531 C 296.75 0.402344 294.039062 0.601562 291.332031 0.863281 C 288.625 1.125 285.925781 1.453125 283.234375 1.847656 C 280.542969 2.242188 277.859375 2.699219 275.191406 3.222656 C 272.523438 3.746094 269.867188 4.332031 267.226562 4.984375 C 264.585938 5.636719 261.964844 6.351562 259.355469 7.128906 C 256.75 7.910156 254.164062 8.75 251.601562 9.65625 C 249.035156 10.558594 246.492188 11.523438 243.972656 12.550781 C 241.457031 13.578125 238.964844 14.664062 236.496094 15.8125 C 234.03125 16.960938 231.59375 18.164062 229.1875 19.429688 C 226.78125 20.695312 224.40625 22.019531 222.0625 23.398438 C 219.71875 24.78125 217.410156 26.21875 215.136719 27.707031 C 212.863281 29.199219 210.625 30.746094 208.425781 32.347656 C 206.230469 33.949219 204.070312 35.601562 201.953125 37.304688 C 199.832031 39.011719 197.757812 40.765625 195.722656 42.570312 C 193.691406 44.375 191.699219 46.230469 189.757812 48.132812 C 187.8125 50.03125 185.917969 51.980469 184.066406 53.972656 C 182.21875 55.96875 180.417969 58.003906 178.667969 60.085938 C 176.917969 62.164062 175.21875 64.285156 173.570312 66.449219 C 171.921875 68.613281 170.328125 70.8125 168.785156 73.054688 C 167.246094 75.292969 165.757812 77.570312 164.328125 79.878906 C 162.898438 82.191406 161.523438 84.539062 160.207031 86.914062 C 158.890625 89.292969 157.628906 91.703125 156.429688 94.140625 C 155.230469 96.582031 154.089844 99.046875 153.007812 101.542969 C 151.925781 104.039062 150.90625 106.554688 149.949219 109.101562 C 148.988281 111.644531 148.09375 114.210938 147.257812 116.796875 C 146.421875 119.382812 145.652344 121.988281 144.945312 124.613281 C 144.234375 127.238281 143.59375 129.878906 143.011719 132.535156 C 142.429688 135.191406 141.914062 137.859375 141.464844 140.539062 C 141.015625 143.21875 140.628906 145.910156 140.308594 148.609375 C 139.988281 151.308594 139.730469 154.015625 139.542969 156.726562 C 139.351562 159.4375 139.230469 162.152344 139.171875 164.871094 C 139.171875 219.039062 196.199219 327.910156 243.761719 409.390625 C 136.347656 421.828125 57.253906 466.382812 57.253906 519.40625 C 57.253906 582.65625 169.25 633.847656 307.585938 633.847656 C 445.917969 633.847656 557.761719 582.730469 557.761719 519.40625 C 557.761719 466.382812 478.671875 421.828125 371.40625 409.011719 Z M 307.660156 80.949219 C 308.949219 80.949219 310.238281 80.984375 311.527344 81.050781 C 312.8125 81.117188 314.097656 81.214844 315.382812 81.34375 C 316.664062 81.472656 317.941406 81.632812 319.21875 81.824219 C 320.492188 82.015625 321.761719 82.238281 323.027344 82.492188 C 324.289062 82.746094 325.546875 83.03125 326.796875 83.347656 C 328.046875 83.660156 329.289062 84.007812 330.519531 84.386719 C 331.753906 84.761719 332.976562 85.167969 334.191406 85.605469 C 335.402344 86.042969 336.605469 86.507812 337.792969 87.003906 C 338.984375 87.5 340.160156 88.023438 341.324219 88.578125 C 342.488281 89.132812 343.640625 89.714844 344.773438 90.324219 C 345.910156 90.933594 347.03125 91.570312 348.132812 92.234375 C 349.238281 92.902344 350.324219 93.59375 351.394531 94.3125 C 352.464844 95.027344 353.519531 95.773438 354.550781 96.542969 C 355.585938 97.3125 356.597656 98.109375 357.59375 98.929688 C 358.585938 99.746094 359.5625 100.589844 360.515625 101.460938 C 361.46875 102.328125 362.398438 103.21875 363.308594 104.132812 C 364.21875 105.042969 365.101562 105.980469 365.964844 106.9375 C 366.828125 107.894531 367.667969 108.871094 368.484375 109.867188 C 369.300781 110.867188 370.089844 111.882812 370.855469 112.921875 C 371.621094 113.957031 372.359375 115.011719 373.074219 116.085938 C 373.785156 117.160156 374.472656 118.25 375.132812 119.355469 C 375.792969 120.464844 376.421875 121.585938 377.027344 122.722656 C 377.632812 123.863281 378.207031 125.015625 378.757812 126.179688 C 379.304688 127.347656 379.824219 128.527344 380.3125 129.71875 C 380.804688 130.910156 381.261719 132.113281 381.695312 133.328125 C 382.125 134.539062 382.527344 135.765625 382.894531 137 C 383.265625 138.234375 383.605469 139.476562 383.917969 140.726562 C 384.226562 141.976562 384.503906 143.234375 384.75 144.5 C 385 145.761719 385.214844 147.03125 385.402344 148.308594 C 385.585938 149.582031 385.738281 150.863281 385.863281 152.144531 C 385.984375 153.425781 386.074219 154.710938 386.132812 156 C 386.191406 157.285156 386.222656 158.574219 386.214844 159.863281 C 386.210938 161.148438 386.175781 162.4375 386.109375 163.722656 C 386.042969 165.011719 385.941406 166.292969 385.8125 167.578125 C 385.679688 168.859375 385.519531 170.136719 385.324219 171.410156 C 385.132812 172.683594 384.90625 173.953125 384.652344 175.214844 C 384.394531 176.476562 384.109375 177.734375 383.792969 178.980469 C 383.472656 180.230469 383.125 181.46875 382.746094 182.703125 C 382.371094 183.933594 381.960938 185.15625 381.523438 186.367188 C 381.082031 187.578125 380.617188 188.777344 380.117188 189.964844 C 379.621094 191.15625 379.09375 192.332031 378.539062 193.492188 C 377.984375 194.65625 377.398438 195.804688 376.789062 196.9375 C 376.175781 198.074219 375.535156 199.191406 374.871094 200.292969 C 374.203125 201.394531 373.507812 202.480469 372.789062 203.550781 C 372.070312 204.617188 371.324219 205.667969 370.550781 206.699219 C 369.777344 207.734375 368.980469 208.746094 368.160156 209.738281 C 367.339844 210.730469 366.492188 211.703125 365.625 212.652344 C 364.753906 213.605469 363.863281 214.535156 362.945312 215.441406 C 362.03125 216.351562 361.09375 217.234375 360.136719 218.09375 C 359.175781 218.957031 358.199219 219.792969 357.199219 220.609375 C 356.199219 221.421875 355.179688 222.210938 354.140625 222.972656 C 353.101562 223.734375 352.046875 224.472656 350.96875 225.183594 C 349.894531 225.894531 348.804688 226.582031 347.695312 227.238281 C 346.585938 227.898438 345.464844 228.527344 344.324219 229.128906 C 343.183594 229.730469 342.03125 230.304688 340.863281 230.851562 C 339.695312 231.398438 338.515625 231.914062 337.320312 232.402344 C 336.128906 232.890625 334.925781 233.351562 333.707031 233.777344 C 332.492188 234.207031 331.265625 234.605469 330.03125 234.976562 C 328.796875 235.34375 327.554688 235.683594 326.300781 235.988281 C 325.050781 236.296875 323.789062 236.574219 322.523438 236.820312 C 321.257812 237.066406 319.988281 237.28125 318.710938 237.464844 C 317.4375 237.648438 316.15625 237.800781 314.875 237.917969 C 313.589844 238.039062 312.304688 238.128906 311.015625 238.1875 C 309.726562 238.246094 308.441406 238.269531 307.152344 238.265625 C 305.859375 238.257812 304.574219 238.222656 303.285156 238.152344 C 302 238.082031 300.714844 237.980469 299.429688 237.851562 C 298.148438 237.71875 296.871094 237.554688 295.597656 237.359375 C 294.320312 237.164062 293.054688 236.9375 291.789062 236.679688 C 290.527344 236.421875 289.269531 236.136719 288.019531 235.816406 C 286.773438 235.496094 285.53125 235.148438 284.300781 234.769531 C 283.066406 234.386719 281.847656 233.976562 280.632812 233.539062 C 279.421875 233.097656 278.222656 232.628906 277.035156 232.128906 C 275.84375 231.632812 274.667969 231.105469 273.507812 230.546875 C 272.34375 229.992188 271.195312 229.40625 270.0625 228.792969 C 268.925781 228.179688 267.808594 227.539062 266.707031 226.871094 C 265.605469 226.203125 264.519531 225.511719 263.449219 224.789062 C 262.382812 224.066406 261.332031 223.320312 260.300781 222.546875 C 259.269531 221.773438 258.257812 220.976562 257.265625 220.15625 C 256.273438 219.332031 255.300781 218.488281 254.351562 217.617188 C 253.398438 216.746094 252.46875 215.855469 251.5625 214.9375 C 250.65625 214.023438 249.773438 213.085938 248.910156 212.125 C 248.050781 211.167969 247.214844 210.1875 246.402344 209.1875 C 245.589844 208.1875 244.800781 207.167969 244.039062 206.128906 C 243.277344 205.089844 242.539062 204.03125 241.828125 202.957031 C 241.121094 201.882812 240.4375 200.789062 239.777344 199.683594 C 239.121094 198.574219 238.492188 197.449219 237.890625 196.308594 C 237.289062 195.171875 236.714844 194.015625 236.171875 192.847656 C 235.625 191.679688 235.109375 190.5 234.625 189.308594 C 234.136719 188.113281 233.679688 186.910156 233.253906 185.695312 C 232.824219 184.480469 232.425781 183.253906 232.058594 182.019531 C 231.691406 180.785156 231.355469 179.542969 231.050781 178.289062 C 230.742188 177.039062 230.46875 175.78125 230.222656 174.515625 C 229.980469 173.25 229.765625 171.980469 229.585938 170.703125 C 229.402344 169.429688 229.253906 168.148438 229.132812 166.867188 C 229.015625 165.585938 228.925781 164.300781 228.871094 163.011719 C 228.816406 161.726562 228.789062 160.4375 228.796875 159.148438 C 228.796875 157.859375 228.828125 156.574219 228.890625 155.285156 C 228.953125 154 229.046875 152.714844 229.171875 151.433594 C 229.296875 150.148438 229.453125 148.871094 229.644531 147.597656 C 229.832031 146.324219 230.050781 145.054688 230.300781 143.789062 C 230.554688 142.527344 230.835938 141.269531 231.148438 140.019531 C 231.460938 138.769531 231.804688 137.527344 232.179688 136.296875 C 232.554688 135.0625 232.960938 133.839844 233.394531 132.628906 C 233.828125 131.414062 234.292969 130.214844 234.785156 129.023438 C 235.28125 127.832031 235.804688 126.65625 236.355469 125.492188 C 236.90625 124.328125 237.488281 123.175781 238.097656 122.042969 C 238.707031 120.90625 239.339844 119.785156 240.003906 118.679688 C 240.667969 117.578125 241.359375 116.488281 242.078125 115.417969 C 242.796875 114.347656 243.539062 113.296875 244.308594 112.261719 C 245.078125 111.230469 245.871094 110.214844 246.691406 109.21875 C 247.511719 108.226562 248.355469 107.253906 249.222656 106.300781 C 250.089844 105.347656 250.980469 104.414062 251.894531 103.503906 C 252.804688 102.597656 253.742188 101.710938 254.699219 100.847656 C 255.65625 99.984375 256.632812 99.144531 257.632812 98.328125 C 258.628906 97.515625 259.648438 96.726562 260.683594 95.960938 C 261.722656 95.195312 262.777344 94.457031 263.851562 93.742188 C 264.925781 93.03125 266.015625 92.34375 267.125 91.683594 C 268.230469 91.027344 269.355469 90.394531 270.492188 89.789062 C 271.632812 89.1875 272.785156 88.609375 273.953125 88.0625 C 275.121094 87.515625 276.300781 87 277.492188 86.511719 C 278.6875 86.019531 279.890625 85.5625 281.105469 85.132812 C 282.320312 84.703125 283.546875 84.300781 284.78125 83.933594 C 286.015625 83.5625 287.257812 83.226562 288.511719 82.917969 C 289.761719 82.609375 291.019531 82.332031 292.285156 82.085938 C 293.550781 81.839844 294.824219 81.625 296.097656 81.441406 C 297.375 81.257812 298.65625 81.105469 299.9375 80.984375 C 301.222656 80.863281 302.507812 80.777344 303.796875 80.71875 C 305.082031 80.660156 306.371094 80.636719 307.660156 80.640625 Z M 307.660156 562.207031 C 186.046875 561.902344 87.792969 528.867188 87.792969 487.898438 C 87.792969 454.480469 154.210938 421.828125 245.441406 411.605469 C 278.652344 469.207031 307.585938 512.464844 307.585938 512.464844 C 307.585938 512.464844 336.289062 469.207031 370.261719 411.300781 C 461.265625 421.828125 527.757812 454.480469 527.757812 487.59375 C 527.605469 528.867188 429.046875 561.902344 307.585938 561.902344 Z M 307.660156 562.207031 " fill-opacity="1" fill-rule="nonzero"/></svg>