<svg xmlns="http://www.w3.org/2000/svg" xmlns:xlink="http://www.w3.org/1999/xlink" width="600" zoomAndPan="magnify" viewBox="0 0 450 788.999998" height="1052" preserveAspectRatio="xMidYMid meet" version="1.0"><defs><clipPath id="bbafd291f6"><path d="M 0 22 L 397 22 L 397 773 L 0 773 Z M 0 22 " clip-rule="nonzero"/></clipPath><clipPath id="dd52c54a11"><path d="M 154.730469 862.738281 L -298.171875 409.835938 L 164.277344 -52.613281 L 617.175781 400.289062 Z M 154.730469 862.738281 " clip-rule="nonzero"/></clipPath><clipPath id="d00cdd40d1"><path d="M -298.1875 409.816406 L 154.714844 862.71875 L 617.160156 400.273438 L 164.257812 -52.628906 Z M -298.1875 409.816406 " clip-rule="nonzero"/></clipPath><clipPath id="1d517d0a9d"><path d="M 0 7 L 445 7 L 445 771 L 0 771 Z M 0 7 " clip-rule="nonzero"/></clipPath><clipPath id="16118f1f0f"><path d="M 154.730469 862.738281 L -298.171875 409.835938 L 164.277344 -52.613281 L 617.175781 400.289062 Z M 154.730469 862.738281 " clip-rule="nonzero"/></clipPath><clipPath id="80e5d5060a"><path d="M -298.1875 409.816406 L 154.714844 862.71875 L 617.160156 400.273438 L 164.257812 -52.628906 Z M -298.1875 409.816406 " clip-rule="nonzero"/></clipPath></defs><g clip-path="url(#bbafd291f6)"><g clip-path="url(#dd52c54a11)"><g clip-path="url(#d00cdd40d1)"><path fill="#fe9e0d" d="M 308.078125 322.796875 C 326.09375 296.277344 344.632812 268.445312 348.714844 236.628906 C 352.804688 204.824219 337.4375 168.046875 306.738281 158.8125 C 289.230469 153.558594 270.488281 157.925781 252.214844 158.402344 C 233.941406 158.882812 212.800781 153.242188 205.488281 136.488281 C 198.007812 119.351562 208.632812 99.96875 208.835938 81.265625 C 209.167969 50.195312 178.671875 25.183594 147.695312 22.671875 C 116.722656 20.15625 86.789062 35.007812 61.941406 53.664062 C 51.074219 61.816406 40.550781 71.097656 34.386719 83.207031 C 14.078125 123.070312 48.511719 171.132812 39.851562 215.019531 C 33.285156 248.308594 4.003906 271.285156 -20.902344 294.316406 C -47.882812 319.269531 -72.96875 350.53125 -74.84375 387.234375 C -76.335938 416.441406 -62.773438 444.335938 -46.554688 468.679688 C -28.902344 495.164062 -7.695312 519.257812 16.332031 540.128906 C 23.605469 546.445312 31.261719 552.613281 36.316406 560.800781 C 55.097656 591.203125 30.4375 628.898438 25.152344 664.230469 C 17.15625 717.703125 64.683594 772.476562 118.757812 772.074219 C 146.550781 771.863281 172.71875 759.460938 196.886719 745.726562 C 255.121094 712.667969 308.085938 670.367188 353.214844 620.917969 C 371.851562 600.484375 389.726562 577.699219 395.335938 550.605469 C 400.9375 523.519531 390.605469 491.320312 365.429688 479.851562 C 348.21875 472.003906 328.117188 475.113281 309.769531 479.757812 C 291.417969 484.402344 272.773438 490.507812 253.992188 488.1875 C 235.210938 485.863281 216.144531 471.898438 215.589844 452.976562 C 215.21875 440.332031 222.902344 429.015625 230.253906 418.722656 C 250.398438 390.511719 287.929688 351.011719 308.078125 322.796875 " fill-opacity="1" fill-rule="nonzero"/></g></g></g><g clip-path="url(#1d517d0a9d)"><g clip-path="url(#16118f1f0f)"><g clip-path="url(#80e5d5060a)"><path fill="#251e20" d="M 342.722656 311.222656 C 362.925781 281.480469 386.53125 247.4375 382.691406 209.59375 C 381.113281 194.042969 374.5 178.3125 363.328125 167.65625 C 358.03125 162.609375 351.457031 158.710938 344.15625 156.722656 C 335.582031 154.398438 326.65625 154.550781 317.863281 155.125 C 308.546875 155.746094 299.226562 157.035156 289.871094 156.949219 C 280.132812 156.863281 270.46875 155.152344 261.484375 151.367188 C 252.980469 147.792969 245.210938 141.59375 240.9375 133.285156 C 237 125.660156 236.023438 117.039062 236.921875 108.589844 C 238.558594 93.230469 245.191406 77.769531 241.359375 62.640625 C 237.699219 48.179688 226.878906 36.652344 213.949219 29.378906 C 182.972656 11.957031 146.367188 24.4375 118.367188 42.519531 C 102.960938 52.480469 85.957031 64.703125 78.933594 82.335938 C 76.847656 87.574219 75.5 94.636719 75.234375 100.621094 C 74.9375 107.378906 75.53125 114.410156 76.46875 120.433594 C 80.988281 149.574219 92.808594 178.636719 86.914062 208.484375 C 79.265625 247.226562 44.25 271.21875 17.824219 297.109375 C -7.148438 321.566406 -29.960938 352.808594 -27.46875 389.515625 C -26.246094 407.445312 -19.238281 424.582031 -10.570312 440.132812 C -0.382812 458.40625 12.175781 475.457031 25.859375 491.261719 C 33.183594 499.730469 40.914062 507.84375 49 515.585938 C 57.019531 523.261719 65.878906 530.074219 73.675781 537.949219 C 85.785156 550.175781 91.511719 565.820312 90.382812 582.945312 C 88.394531 613.011719 70.636719 640.710938 71.582031 670.558594 C 72.472656 698.472656 89.007812 725.578125 111.371094 741.253906 C 123.050781 749.433594 136.398438 755.140625 150.027344 756.609375 C 167.851562 758.53125 185.773438 754.261719 202.203125 747.558594 C 220.859375 739.953125 238.433594 729.46875 255.523438 718.859375 C 274.074219 707.34375 292.070312 694.890625 309.320312 681.480469 C 326.886719 667.816406 343.734375 653.238281 359.78125 637.824219 C 374.988281 623.210938 389.886719 607.96875 403.09375 591.492188 C 414.976562 576.6875 425.210938 559.914062 429.195312 541.152344 C 432.542969 525.421875 430 508.046875 421.492188 494.300781 C 417.527344 487.890625 412.050781 482.472656 405.339844 478.859375 C 397.992188 474.890625 389.628906 473.523438 381.363281 473.574219 C 362.78125 473.667969 345.167969 480.445312 327.203125 484.285156 C 308.976562 488.175781 289.652344 489.152344 272.859375 479.792969 C 256.9375 470.925781 246.460938 454.277344 250.207031 435.773438 C 252.015625 426.855469 256.832031 418.753906 261.933594 411.355469 C 266.695312 404.453125 271.769531 397.792969 276.988281 391.238281 C 288.359375 376.921875 300.363281 363.121094 312.207031 349.175781 C 322.757812 336.730469 333.453125 324.164062 342.722656 311.222656 C 344.84375 308.261719 348.535156 306.75 351.9375 308.679688 C 354.851562 310.335938 356.617188 314.914062 354.476562 317.894531 C 333.316406 347.425781 307.953125 373.671875 285.464844 402.160156 C 280.601562 408.324219 275.792969 414.679688 271.339844 421.542969 C 266.742188 428.625 262.507812 436.472656 262.890625 445.167969 C 263.207031 452.421875 267.25 458.453125 272.621094 463.230469 C 278.257812 468.257812 285.992188 471.652344 293.703125 473.019531 C 312.195312 476.316406 331.332031 469.300781 349.019531 464.855469 C 367.046875 460.328125 387.164062 457.105469 405.046875 463.976562 C 422.449219 470.65625 434.375 485.300781 440.160156 502.742188 C 446.101562 520.652344 444.929688 540.175781 438.429688 557.742188 C 431.316406 576.933594 419.304688 593.59375 406.019531 608.980469 C 391.558594 625.734375 375.867188 641.523438 359.601562 656.507812 C 326.148438 687.320312 289.421875 714.683594 250.265625 737.820312 C 217.695312 757.070312 180.152344 776.527344 141.121094 768.785156 C 110.699219 762.757812 84.152344 740.910156 69.816406 713.746094 C 62.550781 699.984375 58.242188 684.605469 58.03125 669.007812 C 57.820312 653.222656 62.457031 637.917969 67.128906 623 C 71.574219 608.828125 76.734375 593.976562 77.011719 579.628906 C 77.078125 576.257812 76.859375 572.785156 76.398438 570.246094 C 76.105469 568.589844 75.722656 566.964844 75.253906 565.371094 C 74.792969 563.785156 74.125 561.96875 73.78125 561.203125 C 69.605469 551.980469 62.234375 545.414062 54.703125 538.914062 C 37.300781 523.882812 21.226562 507.464844 6.898438 489.464844 C -6.117188 473.105469 -18.390625 455.730469 -27.496094 436.855469 C -35.832031 419.59375 -41.621094 400.707031 -41.171875 381.375 C -40.722656 362.421875 -34.332031 344.15625 -24.640625 328.007812 C -14.863281 311.691406 -2.035156 297.261719 11.714844 284.214844 C 25.832031 270.804688 41.046875 258.457031 53.71875 243.605469 C 64.960938 230.4375 73.648438 214.273438 74.832031 197.511719 C 75.894531 182.59375 73.007812 168.867188 69.730469 154.292969 C 63.144531 125 54.371094 91.933594 72.960938 65.027344 C 79.210938 55.988281 87.246094 48.617188 95.914062 41.957031 C 103.582031 36.070312 111.503906 30.554688 119.894531 25.738281 C 136.523438 16.183594 154.835938 9.242188 174.054688 7.683594 C 191.46875 6.269531 209.035156 10.171875 223.859375 19.546875 C 238.128906 28.558594 249.980469 42.246094 254.316406 58.796875 C 256.5625 67.371094 256.324219 76 254.949219 84.679688 C 253.734375 92.351562 251.460938 100.324219 250.515625 107.75 C 249.511719 115.597656 249.980469 122.851562 254.308594 129.359375 C 258.808594 136.117188 267.066406 139.710938 274.722656 141.59375 C 293.035156 146.082031 311.832031 140.722656 330.347656 141.265625 C 348.78125 141.8125 365.859375 148.894531 377.730469 163.304688 C 389.179688 177.222656 395.296875 194.75 396.453125 212.632812 C 397.707031 231.984375 392.019531 251.167969 384.007812 268.578125 C 375.992188 286.019531 365.21875 302.011719 354.457031 317.855469 C 352.414062 320.875 348.601562 322.300781 345.246094 320.398438 C 342.28125 318.734375 340.65625 314.261719 342.722656 311.222656 Z M 342.722656 311.222656 " fill-opacity="1" fill-rule="nonzero"/></g></g></g></svg>