<svg xmlns="http://www.w3.org/2000/svg" xmlns:xlink="http://www.w3.org/1999/xlink" width="600" zoomAndPan="magnify" viewBox="0 0 450 788.999998" height="1052" preserveAspectRatio="xMidYMid meet" version="1.0"><path fill="#fe9e0d" d="M 274.917969 -68.125 C 367.601562 -60.710938 454.195312 -18.765625 499.425781 60.167969 C 508.375 75.773438 515.722656 92.875 516.175781 110.847656 C 517.625 169.234375 448.152344 213.753906 455.710938 271.65625 C 460.355469 307.246094 492.929688 332.121094 524.832031 348.59375 C 556.730469 365.066406 592.292969 378.65625 613.777344 407.414062 C 647.082031 451.984375 632.6875 519.121094 595.113281 560.175781 C 557.539062 601.234375 502.828125 621.65625 449.359375 637.097656 C 398.488281 651.800781 346.324219 663.375 293.40625 664.90625 C 250.65625 666.144531 202.28125 657.652344 178.167969 622.332031 C 157.003906 591.320312 161.742188 548.992188 176.378906 514.429688 C 191.015625 479.855469 214.242188 449.535156 229.667969 415.3125 C 240.339844 391.632812 246.964844 363.375 235.214844 340.195312 C 218.949219 308.101562 177.476562 301.136719 142.898438 291.175781 C 108.324219 281.214844 69.667969 252.070312 80.226562 217.671875 C 86.496094 197.199219 108.902344 183.933594 112.464844 162.832031 C 116.960938 136.125 89.71875 115.539062 65.089844 104.289062 C 40.460938 93.035156 11.265625 80.125 5.738281 53.609375 C -0.0820312 25.785156 24.308594 1.203125 48.179688 -14.222656 C 114.671875 -57.261719 196.15625 -76.636719 274.917969 -68.125 " fill-opacity="1" fill-rule="nonzero"/><path fill="#232526" d="M 313.78125 -96.351562 C 350.789062 -93.335938 387.800781 -84.695312 421.636719 -69.207031 C 454.808594 -54.035156 484.871094 -32.550781 508.535156 -4.664062 C 520.929688 9.941406 531.828125 26.464844 539.550781 44.035156 C 547.207031 61.492188 548.980469 79.511719 543.867188 97.050781 C 534.824219 128.097656 511.066406 153.710938 497.089844 183.160156 C 489.980469 198.121094 484.953125 214.449219 486.097656 231.179688 C 487.433594 250.8125 496.382812 268.335938 509.46875 282.777344 C 536.632812 312.710938 575.609375 324.898438 609.492188 344.933594 C 625.625 354.476562 640.84375 366.308594 650.644531 382.574219 C 659.605469 397.4375 663.425781 414.457031 663.234375 431.609375 C 662.832031 468.230469 645.210938 503.019531 618.679688 527.90625 C 588.84375 555.90625 550.316406 572.589844 511.886719 585.144531 C 467.464844 599.667969 421.394531 611.550781 374.953125 617.257812 C 337.074219 621.914062 294.4375 624.816406 258.636719 609.195312 C 242.710938 602.25 228.910156 591.433594 220.351562 576.101562 C 210.90625 559.179688 209.246094 538.964844 211.761719 520.023438 C 217.53125 476.46875 245.191406 440.570312 265.566406 402.980469 C 276.320312 383.121094 285.796875 362.132812 287.988281 339.421875 C 289.972656 318.835938 283.832031 298.203125 269.050781 283.4375 C 256.363281 270.769531 239.375 263.5 222.578125 258.050781 C 205.621094 252.554688 187.550781 249.621094 171.125 242.59375 C 155.828125 236.046875 140.011719 225.78125 131.246094 211.628906 C 127.148438 205.035156 125.070312 198.539062 125.457031 190.945312 C 125.84375 183.484375 129.859375 175.890625 134.582031 169.296875 C 145.316406 154.339844 159.40625 141.234375 159.886719 121.519531 C 160.355469 101.917969 146.765625 86.152344 131.984375 75.046875 C 117.253906 63.972656 99.859375 58.074219 83.835938 49.273438 C 69.652344 41.472656 55.757812 31.300781 52.386719 15.164062 C 48.664062 -2.695312 61.480469 -19.121094 73.921875 -30.453125 C 89.203125 -44.363281 108.195312 -54.617188 126.667969 -63.644531 C 165.222656 -82.488281 207.632812 -93.980469 250.414062 -97.285156 C 271.515625 -98.914062 292.726562 -98.589844 313.78125 -96.351562 C 318.117188 -95.882812 321.839844 -100.378906 321.839844 -104.410156 C 321.839844 -109.148438 318.132812 -112.003906 313.78125 -112.46875 C 269.113281 -117.207031 223.527344 -113.179688 180.28125 -101.105469 C 158.632812 -95.0625 137.53125 -86.953125 117.382812 -77.007812 C 98.023438 -67.464844 78.550781 -56.453125 62.511719 -41.851562 C 47.730469 -28.390625 34.511719 -9.59375 35.738281 11.328125 C 36.914062 31.429688 49.824219 46.597656 65.960938 57.347656 C 81.371094 67.617188 99.167969 73.257812 114.882812 82.914062 C 122.605469 87.652344 129.777344 93.246094 135.582031 100.242188 C 140.480469 106.140625 143.738281 113.316406 143.753906 120.570312 C 143.816406 137.71875 127.277344 150.792969 118.316406 164.574219 C 107.660156 180.984375 106.46875 200.535156 116.09375 217.71875 C 125.328125 234.210938 141.800781 246.398438 158.535156 254.488281 C 175.476562 262.660156 193.917969 266.257812 211.839844 271.609375 C 227.992188 276.441406 244.902344 282.488281 256.960938 294.191406 C 270.773438 307.585938 274.480469 326.992188 270.902344 345.902344 C 266.710938 368.019531 255.71875 388.117188 244.597656 407.429688 C 233.039062 427.464844 220.546875 447.019531 210.921875 468.101562 C 193.738281 505.726562 185.226562 554.261719 210.375 590.5625 C 232.957031 623.1875 273.367188 634.40625 311.105469 636.453125 C 333.542969 637.679688 356.191406 635.839844 378.433594 632.957031 C 403.339844 629.734375 427.96875 624.878906 452.328125 618.851562 C 495.558594 608.164062 539.5 595.640625 579.121094 574.910156 C 615.164062 556.050781 648 528.648438 665.3125 491.105469 C 681.382812 456.253906 685.527344 414.34375 667.359375 379.414062 C 647.902344 342.035156 607.460938 325.429688 571.867188 307.441406 C 540.710938 291.691406 503.167969 266.949219 502.105469 228.441406 C 501.667969 213.0625 507.148438 198.3125 514.417969 184.578125 C 522.460938 169.378906 532.328125 155.273438 541.160156 140.539062 C 549.945312 125.902344 558.117188 110.203125 561.390625 93.3125 C 565.597656 71.679688 560.792969 50.820312 551.316406 31.21875 C 534.328125 -3.890625 507.179688 -33.839844 475.699219 -56.550781 C 444.542969 -79.039062 408.351562 -94.433594 371.085938 -103.425781 C 352.289062 -107.972656 333.089844 -110.890625 313.8125 -112.453125 C 309.476562 -112.808594 305.753906 -108.488281 305.753906 -104.394531 C 305.71875 -99.75 309.429688 -96.703125 313.78125 -96.351562 Z M 313.78125 -96.351562 " fill-opacity="1" fill-rule="nonzero"/></svg>