<svg xmlns="http://www.w3.org/2000/svg" xmlns:xlink="http://www.w3.org/1999/xlink" width="820" zoomAndPan="magnify" viewBox="0 0 615 634.499981" height="846" preserveAspectRatio="xMidYMid meet" version="1.0"><defs><clipPath id="5bc2600301"><path d="M 3 287 L 612 287 L 612 599.742188 L 3 599.742188 Z M 3 287 " clip-rule="nonzero"/></clipPath><clipPath id="92a3c71b63"><path d="M 238 417 L 533 417 L 533 599.742188 L 238 599.742188 Z M 238 417 " clip-rule="nonzero"/></clipPath><clipPath id="437a201604"><path d="M 225 292 L 500 292 L 500 599.742188 L 225 599.742188 Z M 225 292 " clip-rule="nonzero"/></clipPath></defs><g clip-path="url(#5bc2600301)"><path fill="#57b236" d="M 307.441406 287.855469 L 262.035156 288.070312 C 228.796875 288.582031 195.558594 289.648438 162.914062 291.273438 C 136.511719 292.460938 123.503906 296.765625 121.164062 297.609375 L 120.832031 297.738281 C 115.246094 299.871094 109.90625 302.496094 104.808594 305.613281 C 99.710938 308.730469 94.941406 312.289062 90.503906 316.285156 C 86.0625 320.285156 82.027344 324.65625 78.394531 329.398438 C 74.761719 334.144531 71.597656 339.179688 68.894531 344.507812 C 40.820312 401.457031 21.945312 444.074219 7.65625 482.714844 C 0.28125 502.324219 2.90625 524.238281 15.003906 544.277344 C 29.140625 567.746094 54.746094 585.46875 81.847656 590.546875 C 82.417969 590.65625 83.035156 590.738281 83.59375 590.808594 C 100.875 592.730469 119.429688 593.761719 121.316406 593.871094 C 183.046875 597.785156 245.449219 599.800781 307.441406 599.800781 C 369.429688 599.800781 431.871094 597.832031 493.5625 593.871094 C 495.449219 593.761719 514.003906 592.683594 531.289062 590.808594 C 531.882812 590.738281 532.476562 590.65625 533.035156 590.546875 C 560.136719 585.46875 585.742188 567.746094 599.878906 544.277344 C 611.988281 524.191406 614.597656 502.324219 607.226562 482.714844 C 592.980469 444.074219 574.058594 401.46875 545.984375 344.507812 C 543.285156 339.179688 540.117188 334.144531 536.488281 329.398438 C 532.855469 324.65625 528.820312 320.285156 524.378906 316.285156 C 519.9375 312.289062 515.167969 308.730469 510.070312 305.613281 C 504.972656 302.496094 499.632812 299.871094 494.050781 297.738281 L 493.71875 297.609375 C 491.34375 296.765625 478.367188 292.460938 451.96875 291.273438 C 419.359375 289.648438 386.039062 288.582031 352.847656 288.070312 Z M 307.441406 287.855469 " fill-opacity="1" fill-rule="nonzero"/></g><path fill="#99badc" d="M 398.242188 419.574219 L 531.195312 590.808594 C 531.777344 590.738281 532.382812 590.65625 532.9375 590.546875 C 560.074219 585.46875 585.730469 567.746094 599.890625 544.277344 C 612.011719 524.191406 614.621094 502.324219 607.238281 482.714844 C 592.992188 444.074219 574 401.46875 545.914062 344.507812 C 543.199219 339.175781 540.019531 334.132812 536.375 329.386719 C 532.730469 324.640625 528.679688 320.269531 524.226562 316.269531 C 519.769531 312.273438 514.988281 308.714844 509.875 305.601562 C 504.765625 302.484375 499.410156 299.867188 493.8125 297.738281 Z M 398.242188 419.574219 " fill-opacity="1" fill-rule="nonzero"/><g clip-path="url(#92a3c71b63)"><path fill="#4193d2" d="M 389.421875 417.414062 L 238.042969 598.628906 C 261.359375 599.171875 284.652344 599.445312 307.925781 599.445312 C 370.011719 599.445312 432.570312 597.476562 494.300781 593.515625 C 496.199219 593.417969 514.777344 592.328125 532.097656 590.453125 Z M 389.421875 417.414062 " fill-opacity="1" fill-rule="nonzero"/></g><path fill="#dd4247" d="M 313.175781 78.429688 C 285.777344 50.546875 251.054688 33.988281 214.46875 34.046875 L 213.472656 34.046875 C 139.171875 35.242188 73.179688 104.53125 71.328125 178.492188 C 71.1875 186.644531 71.820312 194.738281 73.230469 202.773438 C 74.644531 210.804688 76.808594 218.628906 79.722656 226.246094 L 79.816406 226.496094 C 80.171875 228.867188 110.277344 296.304688 203.902344 396.582031 C 204.230469 397.027344 204.585938 397.453125 204.960938 397.863281 C 205.542969 398.511719 206.183594 399.09375 206.886719 399.609375 C 207.589844 400.128906 208.335938 400.566406 209.128906 400.933594 C 209.921875 401.296875 210.746094 401.574219 211.59375 401.769531 C 212.445312 401.964844 213.308594 402.074219 214.179688 402.09375 C 215.050781 402.113281 215.917969 402.042969 216.773438 401.882812 C 217.632812 401.726562 218.464844 401.480469 219.273438 401.152344 C 220.082031 400.824219 220.847656 400.414062 221.570312 399.929688 C 222.296875 399.441406 222.960938 398.886719 223.574219 398.265625 C 259.785156 361.96875 291.839844 322.308594 319.726562 279.289062 C 339.90625 247.792969 348.691406 227.597656 349.046875 226.71875 L 349.238281 226.246094 C 352.128906 218.699219 354.28125 210.945312 355.695312 202.988281 C 357.105469 195.03125 357.757812 187.011719 357.640625 178.929688 C 357.109375 142.046875 340.75 106.558594 313.175781 78.429688 Z M 313.175781 78.429688 " fill-opacity="1" fill-rule="nonzero"/><path fill="#ffffff" d="M 410.371094 415.039062 L 544.855469 587.785156 C 541.261719 588.925781 537.609375 589.847656 533.902344 590.546875 C 533.332031 590.65625 532.714844 590.738281 532.15625 590.808594 C 523.253906 591.792969 514.027344 592.554688 506.894531 593.0625 L 389.347656 442.089844 Z M 410.371094 415.039062 " fill-opacity="1" fill-rule="nonzero"/><g clip-path="url(#437a201604)"><path fill="#fca84c" d="M 410.371094 415.078125 L 499.75 300.289062 L 499.996094 299.980469 C 498.304688 299.191406 496.578125 298.472656 494.820312 297.824219 L 494.488281 297.691406 C 492.507812 296.980469 482.855469 293.789062 463.898438 292.105469 L 462.058594 294.605469 L 225.390625 598.617188 C 239.207031 598.996094 253.019531 599.285156 266.832031 599.480469 L 389.347656 442.128906 Z M 410.371094 415.078125 " fill-opacity="1" fill-rule="nonzero"/></g><path fill="#ba2525" d="M 214.847656 235.75 C 183.570312 235.75 158.09375 210.347656 158.261719 179.324219 C 158.425781 148.296875 183.984375 122.46875 214.847656 122.433594 C 245.710938 122.398438 271.222656 148.320312 271.4375 179.382812 C 271.648438 210.441406 246.140625 235.703125 214.847656 235.75 Z M 214.847656 235.75 " fill-opacity="1" fill-rule="nonzero"/></svg>