<svg xmlns="http://www.w3.org/2000/svg" xmlns:xlink="http://www.w3.org/1999/xlink" width="600" zoomAndPan="magnify" viewBox="0 0 450 788.999998" height="1052" preserveAspectRatio="xMidYMid meet" version="1.0"><path fill="#fe9e0d" d="M 287.042969 0.894531 C 229.871094 3.066406 184.160156 19.816406 137.144531 46.570312 C 90.128906 73.328125 61.902344 124.066406 78.617188 168.816406 C 88.542969 195.394531 113 219.375 110.730469 247.09375 C 107.222656 290.0625 44.890625 311.726562 19 349.242188 C 0.207031 376.472656 3.230469 412.699219 26.34375 437.59375 C 56.679688 470.261719 114.78125 481.785156 138.84375 517.75 C 154.105469 540.542969 152.082031 568.097656 149.648438 593.992188 C 147.332031 618.625 145.03125 643.277344 142.710938 667.910156 C 141.128906 684.710938 139.789062 702.503906 149.324219 717.457031 C 163.019531 738.957031 195.34375 748.050781 225.039062 748.867188 C 297.882812 750.875 367.578125 713.035156 402.527344 660.859375 C 437.480469 608.683594 440.355469 544.738281 420.324219 487.566406 C 413.042969 466.785156 402.871094 446.523438 399.523438 425.089844 C 396.179688 403.652344 400.796875 380.015625 419.34375 364.589844 C 431.996094 354.074219 449.5625 348.523438 463.585938 339.234375 C 499.453125 315.464844 503.238281 265.984375 471.289062 238.753906 C 449.90625 220.535156 416.046875 211.605469 402.839844 188.78125 C 384.046875 156.328125 418.558594 120.230469 420.796875 84.382812 C 422.316406 60.054688 407.378906 35.453125 382.742188 21.691406 C 358.109375 7.929688 320.722656 -0.0546875 287.042969 0.894531 " fill-opacity="1" fill-rule="nonzero"/><path fill="#232526" d="M 318.863281 20.074219 C 278.863281 21.675781 240.273438 30.949219 203.6875 47.125 C 169.925781 62.046875 136.964844 80.511719 115.953125 111.871094 C 106.992188 125.242188 100.609375 140.589844 98.40625 156.570312 C 96.023438 173.910156 98.78125 190.722656 106.027344 206.625 C 113.390625 222.722656 124.851562 236.90625 131.007812 253.558594 C 132.445312 257.460938 133.734375 261.574219 134.253906 265.722656 C 134.433594 267.09375 134.5 268.613281 134.53125 270.046875 C 134.550781 271.140625 134.53125 272.253906 134.46875 273.347656 C 134.453125 273.574219 134.074219 277.050781 134.289062 275.632812 C 133.257812 282.421875 131.511719 286.601562 128.183594 292.136719 C 121.359375 303.449219 110.242188 313.015625 99.320312 321.800781 C 87.53125 331.269531 75.207031 340.101562 63.925781 350.1875 C 51.683594 361.144531 41.085938 373.714844 35.195312 389.222656 C 29.054688 405.351562 28.875 423.898438 34.296875 440.253906 C 45.640625 474.375 77.28125 491.941406 107.089844 507.875 C 120.507812 515.042969 134.875 522.484375 146.582031 531.644531 C 159.789062 541.960938 169.0625 554.367188 172.863281 571.039062 C 177.042969 589.402344 174.53125 608.765625 172.800781 627.277344 C 170.628906 650.363281 168.425781 673.429688 166.300781 696.511719 C 164.507812 716.101562 164.441406 736.640625 177.027344 752.980469 C 187.640625 766.761719 204.046875 774.761719 220.519531 779.265625 C 256.207031 789.011719 296.039062 784.867188 330.8125 773.421875 C 364.816406 762.238281 396.652344 743.171875 421.449219 717.230469 C 447.601562 689.851562 464.875 654.558594 470.441406 617.105469 C 476.222656 578.089844 470.359375 539.074219 456.238281 502.421875 C 444.222656 471.257812 424.78125 429.136719 453.527344 400.863281 C 466.734375 387.882812 485.886719 383.199219 500.886719 372.765625 C 514.324219 363.429688 524.511719 350.304688 529.652344 334.710938 C 534.386719 320.332031 534.324219 304.003906 529.113281 289.753906 C 523.382812 274.046875 512.660156 262.113281 498.960938 252.777344 C 485.054688 243.292969 469.363281 236.664062 455.734375 226.753906 C 443.832031 218.101562 436.386719 206.414062 437.414062 191.441406 C 438.527344 175.28125 447.261719 159.019531 453.054688 143.707031 C 459.375 127.054688 463.339844 109.621094 458.835938 91.957031 C 454.328125 74.375 442.984375 59.386719 428.683594 48.53125 C 413.824219 37.265625 395.230469 30.734375 377.273438 26.394531 C 358.1875 21.804688 338.4375 19.601562 318.863281 20.074219 C 308.378906 20.335938 308.332031 36.664062 318.863281 36.402344 C 338.304688 35.925781 357.730469 38.132812 376.539062 43.0625 C 392.636719 47.273438 409.566406 53.265625 422.347656 64.285156 C 434.132812 74.421875 443.339844 88.953125 444.417969 104.429688 C 445.546875 120.625 438.625 136.199219 432.632812 150.972656 C 426.511719 166.039062 419.636719 182.316406 421.074219 198.953125 C 422.59375 216.617188 432.746094 229.9375 446.605469 240.222656 C 459.550781 249.835938 474.492188 256.335938 488.007812 265.085938 C 500.234375 273.003906 510.015625 283.371094 514.210938 296.691406 C 516.28125 303.285156 516.953125 308.28125 516.675781 315.351562 C 516.429688 321.472656 515.007812 328.265625 512.234375 334.710938 C 506.636719 347.738281 495.566406 357.714844 482.425781 364.785156 C 466.148438 373.550781 448.453125 380.210938 436.699219 395.246094 C 425.9375 409.007812 421.402344 426.589844 422.316406 443.914062 C 423.390625 464.582031 431.488281 483.84375 438.949219 502.863281 C 445.921875 520.625 451.554688 538.695312 454.394531 557.617188 C 459.765625 593.207031 455.128906 630.851562 439.277344 663.308594 C 408.929688 725.441406 340.625 764.492188 272.578125 767.871094 C 255.390625 768.71875 238.066406 767.578125 221.546875 762.546875 C 207.113281 758.140625 192.832031 750.386719 185.992188 736.789062 C 182.074219 729 181.4375 719.988281 181.613281 711.417969 C 181.828125 701.085938 183.132812 690.765625 184.097656 680.480469 C 186.136719 658.738281 188.308594 637.007812 190.203125 615.246094 C 191.835938 596.421875 192.554688 576.636719 186.25 558.5 C 180.75 542.648438 170.449219 529.71875 157.324219 519.464844 C 132.265625 499.875 101.492188 489.507812 76.21875 470.292969 C 64.480469 461.363281 54.261719 449.382812 49.65625 434.835938 C 44.957031 419.964844 45.722656 403.523438 52.710938 389.417969 C 59.109375 376.488281 69.347656 366.710938 80.578125 357.242188 C 92.136719 347.496094 104.496094 338.746094 116.070312 329.03125 C 126.566406 320.230469 136.851562 310.324219 143.496094 298.191406 C 151.003906 284.496094 152.703125 268.9375 148.296875 253.917969 C 143.183594 236.449219 132.148438 221.5625 123.710938 205.644531 C 116.394531 191.832031 112.738281 178.070312 113.980469 162.675781 C 116.429688 132.246094 138.042969 104.199219 163.199219 87.089844 C 178.464844 76.707031 195.574219 68.382812 212.453125 60.953125 C 229.039062 53.65625 246.328125 47.84375 263.976562 43.683594 C 282 39.4375 300.332031 37.121094 318.828125 36.382812 C 329.324219 35.992188 329.375 19.652344 318.863281 20.074219 Z M 318.863281 20.074219 " fill-opacity="1" fill-rule="nonzero"/></svg>